Coordinates
version=1
nRows=17
nColumns=34
inDegrees=yes

Units are S.I. units (second, meters, Newtons, ...)
If the header above contains a line with 'inDegrees', this indicates whether rotational values are in degrees (yes) or radians (no).

endheader
time	pelvis_tilt	pelvis_list	pelvis_rotation	pelvis_tx	pelvis_ty	pelvis_tz	hip_flexion_r	hip_adduction_r	hip_rotation_r	knee_angle_r	ankle_angle_r	subtalar_angle_r	mtp_angle_r	hip_flexion_l	hip_adduction_l	hip_rotation_l	knee_angle_l	ankle_angle_l	subtalar_angle_l	mtp_angle_l	lumbar_extension	lumbar_bending	lumbar_rotation	arm_flex_r	arm_add_r	arm_rot_r	elbow_flex_r	pro_sup_r	arm_flex_l	arm_add_l	arm_rot_l	elbow_flex_l	pro_sup_l
      0.00000000	      1.29873736	     -4.24033505	      4.75436195	      1.19693155	      1.11629297	      0.16076632	      4.39335497	      2.66891436	     -7.52555115	     12.78543758	      7.00047937	    -13.78268067	      0.00000000	      4.18416004	     -3.22932863	     -6.95590066	      8.61676616	     11.47436200	     -6.01907224	      0.00000000	     -1.45021581	      4.11901463	     -1.82508688	      4.60012897	     -3.73404815	     11.82865897	     22.59727270	     84.49870103	     -4.74102414	     -2.82338200	      0.65191862	     28.40315949	     80.37494229
      0.01666670	      0.44890967	     -2.83737515	      5.06753292	      1.20440657	      1.11419110	      0.16167337	      4.24705577	      1.52929004	     -8.40645184	     11.42476622	     10.70271590	     -9.78805953	      0.00000000	      5.07528675	     -1.61104958	     -8.17108840	      8.84189922	     12.23797115	     -4.87306657	      0.00000000	      1.13819203	      2.64804331	     -1.41459183	      3.15039774	     -3.07570497	      8.79978120	     22.74086988	     84.77192888	     -5.03632475	     -3.09429541	     -0.87955086	     27.24527739	     79.84701382
      0.03333330	     -0.62798144	     -1.69810340	      4.86924414	      1.20052972	      1.11043678	      0.16130209	      4.85370639	      0.29431377	     -9.73746855	     10.43417036	     11.87059810	     -8.02177654	      0.00000000	      6.09724508	     -0.32392274	     -9.71929179	      8.83910465	     13.07590187	     -2.53221233	      0.00000000	      2.84670230	      1.18409522	     -0.63210029	      2.51413775	     -2.48557858	      7.22161520	     22.86180756	     85.65042138	     -4.99559875	     -3.90134808	      1.19883909	     26.60480486	     79.71312960
      0.05000000	     -0.63604393	     -1.12163254	      4.86272534	      1.20084530	      1.11069101	      0.16115202	      4.76261319	     -0.42692649	    -10.14160243	     10.29094184	     12.98491503	     -6.26385459	      0.00000000	      5.75709186	      0.34393670	     -9.90674765	      8.30376993	     12.84889659	     -2.28115452	      0.00000000	      2.99102588	      0.47862771	      0.26567501	      1.97513217	     -2.43706306	      6.89824245	     23.03057517	     86.63621187	     -4.73226592	     -4.51253219	      3.89201327	     26.22927782	     79.67845641
      0.06666670	     -0.65183140	     -0.79708302	      4.89393632	      1.20875067	      1.11560592	      0.16272759	      4.33055067	     -0.66172108	    -10.18396235	      9.80168158	     13.01370404	     -5.91208586	      0.00000000	      5.31389244	      0.63292365	     -9.97265929	      7.87220692	     12.03969884	     -1.92714683	      0.00000000	      3.31199254	      0.07266076	      0.27667080	      1.49077317	     -2.16219712	      6.95072228	     22.98698064	     86.80785874	     -5.14239459	     -4.56169490	      4.30703858	     26.03982900	     79.65645591
      0.08333330	     -0.64147870	     -0.76349433	      4.89507163	      1.20159674	      1.11882227	      0.16254024	      4.34078404	     -0.64210833	    -10.18981403	      9.77595879	     13.01619939	     -5.90768154	      0.00000000	      5.32952045	      0.63404592	     -9.97462229	      7.84612483	     12.03912470	     -1.92458131	      0.00000000	      3.31364685	      0.07208506	      0.28216262	      1.48128160	     -2.15753003	      6.95254246	     22.98502245	     86.80940189	     -5.15518001	     -4.55627862	      4.31132949	     26.03547811	     79.65647630
      0.10000000	      0.18684744	     -0.63361336	      5.01938249	      1.20233280	      1.11887032	      0.16272763	      3.27596923	     -0.70990498	    -10.72925497	      9.32449697	     13.04126927	     -4.46516448	      0.00000000	      4.18129108	      0.72168934	     -9.91453912	      7.17324791	     11.48513331	     -1.43304717	      0.00000000	      1.86834591	     -0.02102272	      0.65871865	      1.75803528	     -2.20789760	      7.28097051	     22.96399118	     87.41276703	     -4.26852207	     -4.49725086	      5.47832221	     25.33645979	     79.59795339
      0.11666670	      0.16636975	     -0.63388348	      5.13199821	      1.20414763	      1.11770862	      0.16257771	      3.26524756	     -0.68747658	    -10.72127824	      9.35561185	     12.99601177	     -4.43405021	      0.00000000	      4.18361276	      0.71562767	     -9.89669610	      7.09737263	     11.45310826	     -1.39791887	      0.00000000	      1.84287388	     -0.06429615	      0.67844582	      1.77377594	     -2.18129755	      7.28793469	     22.97100065	     87.42473010	     -4.26611363	     -4.45267780	      5.49981806	     25.32779464	     79.59479356
      0.13333330	      0.26544770	     -0.67524876	      5.23725423	      1.20641676	      1.11049091	      0.16344317	      3.17862782	     -0.63361105	    -10.76790896	      9.61842042	     12.94197106	     -4.43841986	      0.00000000	      4.09046341	      0.64025230	     -9.83773666	      7.06161288	     11.40425153	     -1.32879239	      0.00000000	      1.88412631	     -0.12927652	      0.65622320	      1.70756443	     -2.14510437	      7.30241924	     22.96047868	     87.44478820	     -4.22596343	     -4.43247001	      5.51809326	     25.32582870	     79.58716959
      0.15000000	      0.48524715	     -0.56220668	      5.41424290	      1.20781225	      1.12044887	      0.16382932	      2.90240776	     -0.74329345	    -11.30993509	      9.70047950	     12.72555162	     -4.58808554	      0.00000000	      3.74162845	      0.72363712	     -9.74873252	      6.90066823	     10.75443326	     -0.96074683	      0.00000000	      1.58758289	     -0.28926309	      0.59970092	      1.55359021	     -2.04027839	      7.37904658	     22.92345527	     87.59260746	     -4.07143842	     -4.47904620	      5.59918423	     25.19181687	     79.52531476
      0.16666670	      0.53864868	     -0.54881147	      5.38440592	      1.20775221	      1.12049886	      0.16410554	      2.77614945	     -0.72062905	    -11.28395043	      9.63173070	     12.68327670	     -4.54580886	      0.00000000	      3.65659402	      0.68294853	     -9.78027738	      7.00100328	     10.65112898	     -0.95849393	      0.00000000	      1.50794585	     -0.30444046	      0.55077488	      1.39245071	     -1.97154469	      7.40540563	     22.87770333	     87.62390514	     -4.11899624	     -4.51723665	      5.61283552	     25.14672079	     79.51381082
      0.18333330	      1.39276184	     -0.44197881	      5.51424821	      1.20775550	      1.12120022	      0.16375339	      1.55724170	     -0.65897018	    -11.31673083	      9.07013661	     12.41207560	     -4.25626279	      0.00000000	      2.55131022	      0.69842120	     -9.85244042	      6.72036383	      9.95624893	     -1.04941062	      0.00000000	      0.43269653	     -0.37096326	      0.47771397	      1.64185206	     -1.92863861	      7.64194851	     22.78869666	     88.23056012	     -3.80858759	     -4.58832525	      5.91039014	     24.95497877	     79.30780891
      0.20000000	      1.38274956	     -0.41812918	      5.52238919	      1.20709371	      1.12108807	      0.16483847	      1.55255262	     -0.64489055	    -11.31697284	      9.06649577	     12.41075551	     -4.25446802	      0.00000000	      2.54280233	      0.69381978	     -9.85326352	      6.72438204	      9.95010745	     -1.04813805	      0.00000000	      0.43490572	     -0.36911049	      0.47614149	      1.63650993	     -1.93134088	      7.64234347	     22.78654589	     88.23195471	     -3.80772184	     -4.58908295	      5.91073969	     24.95605989	     79.30733733
      0.21666670	      1.47059299	     -0.36224204	      5.67155927	      1.20650364	      1.12289749	      0.16447011	      1.20949639	     -0.59859678	    -11.37251345	      8.67147188	     12.22667691	     -4.16668475	      0.00000000	      2.48263328	      0.69028487	     -9.91732976	      6.81179788	      9.24250913	     -0.88776286	      0.00000000	      0.35597738	     -0.54316576	      0.48145202	      1.48751517	     -1.85760075	      7.71263735	     22.68671180	     88.36610323	     -3.67202733	     -4.75705036	      5.94052658	     25.05539636	     79.27208152
      0.23333330	      1.47836399	     -0.34154578	      5.67938206	      1.20616380	      1.12242066	      0.16514135	      1.20024417	     -0.58787121	    -11.37125182	      8.67470921	     12.22307091	     -4.16434230	      0.00000000	      2.48486570	      0.69467125	     -9.91959114	      6.80866158	      9.23503826	     -0.88744032	      0.00000000	      0.35739603	     -0.53799962	      0.48010706	      1.48688302	     -1.86137294	      7.71307682	     22.68481421	     88.36813096	     -3.66655242	     -4.75960623	      5.94087696	     25.05859556	     79.27165780
      0.25000000	      2.20315226	     -0.18913240	      5.71536416	      1.20589844	      1.12254459	      0.16544407	      0.26929176	     -0.61518709	    -11.29202439	      8.42654010	     12.00519115	     -4.12960985	      0.00000000	      1.59303422	      0.79432569	     -9.89262175	      6.53633367	      8.46802406	     -1.07807906	      0.00000000	     -0.64806270	     -0.64885725	      0.56955066	      1.81797781	     -1.88118684	      7.98679648	     22.37010995	     89.06943737	     -3.39459359	     -4.98473350	      6.24713683	     25.58509619	     79.18013485
      0.26666670	      2.20502372	     -0.18106965	      5.71158878	      1.20634107	      1.12221786	      0.16538269	      0.26309337	     -0.60469157	    -11.29436107	      8.43046305	     12.00534080	     -4.13072749	      0.00000000	      1.60058785	      0.79857850	     -9.89310559	      6.53460256	      8.46572930	     -1.07726105	      0.00000000	     -0.64960631	     -0.64789824	      0.56827582	      1.81838673	     -1.88233045	      7.98707434	     22.36949716	     89.07064142	     -3.39117409	     -4.98619562	      6.24715102	     25.58665953	     79.17993586
